HIERARCHY
ROOT Hips
{
	OFFSET -0.000008 104.274872 1.554316
	CHANNELS 6 Xposition Yposition Zposition Xrotation Yrotation Zrotation
	JOINT Spine
	{
		OFFSET -0.000005 10.181595 0.131521
		CHANNELS 6 Xposition Yposition Zposition Xrotation Yrotation Zrotation
		JOINT Spine1
		{
			OFFSET -0.000000 9.893959 -1.470711
			CHANNELS 6 Xposition Yposition Zposition Xrotation Yrotation Zrotation
			JOINT Spine2
			{
				OFFSET -0.000000 9.220757 -1.370642
				CHANNELS 3 Xrotation Yrotation Zrotation
				JOINT Neck
				{
					OFFSET 0.000001 16.740417 -2.049038
					CHANNELS 6 Xposition Yposition Zposition Xrotation Yrotation Zrotation
					JOINT Head
					{
						OFFSET 0.000000 9.617874 1.685009
						CHANNELS 6 Xposition Yposition Zposition Xrotation Yrotation Zrotation
						JOINT HeadTop_End
						{
							OFFSET 0.000002 22.037384 7.501098
							CHANNELS 6 Xposition Yposition Zposition Xrotation Yrotation Zrotation
							End Site
							{
								OFFSET 0.000002 23.106583 -2.828261
							}
						}
					}
				}
				JOINT RightShoulder
				{
					OFFSET -4.569969 11.014923 -2.160886
					CHANNELS 6 Xposition Yposition Zposition Xrotation Yrotation Zrotation
					JOINT RightArm
					{
						OFFSET -10.592850 -0.524811 -2.232100
						CHANNELS 3 Xrotation Yrotation Zrotation
						JOINT RightForeArm
						{
							OFFSET -27.841520 0.000015 -0.000005
							CHANNELS 6 Xposition Yposition Zposition Xrotation Yrotation Zrotation
							JOINT RightHand
							{
								OFFSET -28.328838 -0.000015 0.000018
								CHANNELS 6 Xposition Yposition Zposition Xrotation Yrotation Zrotation
								JOINT RightHandThumb1
								{
									OFFSET -2.464806 -1.573990 2.681853
									CHANNELS 6 Xposition Yposition Zposition Xrotation Yrotation Zrotation
									JOINT RightHandThumb2
									{
										OFFSET -3.215195 -1.872772 1.924282
										CHANNELS 6 Xposition Yposition Zposition Xrotation Yrotation Zrotation
										JOINT RightHandThumb3
										{
											OFFSET -2.654823 -1.527985 1.512609
											CHANNELS 6 Xposition Yposition Zposition Xrotation Yrotation Zrotation
											JOINT RightHandThumb4
											{
												OFFSET -2.018822 -1.152008 1.108055
												CHANNELS 3 Xrotation Yrotation Zrotation
												End Site
												{
													OFFSET -1.888100 -1.145340 1.324313
												}
											}
										}
									}
								}
								JOINT RightHandIndex1
								{
									OFFSET -9.108284 -0.517868 2.259835
									CHANNELS 6 Xposition Yposition Zposition Xrotation Yrotation Zrotation
									JOINT RightHandIndex2
									{
										OFFSET -3.699997 0.000000 0.001215
										CHANNELS 3 Xrotation Yrotation Zrotation
										JOINT RightHandIndex3
										{
											OFFSET -2.850014 0.000031 -0.000522
											CHANNELS 3 Xrotation Yrotation Zrotation
											JOINT RightHandIndex4
											{
												OFFSET -2.772179 -0.000015 -0.000019
												CHANNELS 3 Xrotation Yrotation Zrotation
												End Site
												{
													OFFSET -2.772186 0.000000 -0.000502
												}
											}
										}
									}
								}
								JOINT RightHandMiddle1
								{
									OFFSET -9.532509 -0.000046 -0.000025
									CHANNELS 6 Xposition Yposition Zposition Xrotation Yrotation Zrotation
									JOINT RightHandMiddle2
									{
										OFFSET -3.700012 0.000000 0.003713
										CHANNELS 3 Xrotation Yrotation Zrotation
										JOINT RightHandMiddle3
										{
											OFFSET -2.949989 0.000015 -0.002054
											CHANNELS 3 Xrotation Yrotation Zrotation
											JOINT RightHandMiddle4
											{
												OFFSET -2.946625 0.000000 -0.000154
												CHANNELS 3 Xrotation Yrotation Zrotation
												End Site
												{
													OFFSET -2.946632 0.000015 -0.001136
												}
											}
										}
									}
								}
								JOINT RightHandRing1
								{
									OFFSET -9.103600 -0.043076 -1.865135
									CHANNELS 6 Xposition Yposition Zposition Xrotation Yrotation Zrotation
									JOINT RightHandRing2
									{
										OFFSET -3.379272 0.000000 -0.001054
										CHANNELS 3 Xrotation Yrotation Zrotation
										JOINT RightHandRing3
										{
											OFFSET -2.889694 0.000015 0.000379
											CHANNELS 3 Xrotation Yrotation Zrotation
											JOINT RightHandRing4
											{
												OFFSET -2.638809 0.000000 0.000941
												CHANNELS 3 Xrotation Yrotation Zrotation
												End Site
												{
													OFFSET -2.638802 0.000000 0.005160
												}
											}
										}
									}
								}
								JOINT RightHandPinky1
								{
									OFFSET -8.076675 -0.486710 -3.806280
									CHANNELS 6 Xposition Yposition Zposition Xrotation Yrotation Zrotation
									JOINT RightHandPinky2
									{
										OFFSET -3.600006 -0.000031 -0.003747
										CHANNELS 3 Xrotation Yrotation Zrotation
										JOINT RightHandPinky3
										{
											OFFSET -2.099976 -0.000015 -0.005740
											CHANNELS 3 Xrotation Yrotation Zrotation
											JOINT RightHandPinky4
											{
												OFFSET -2.115776 -0.000031 -0.003680
												CHANNELS 3 Xrotation Yrotation Zrotation
												End Site
												{
													OFFSET -2.115776 -0.000015 -0.003507
												}
											}
										}
									}
								}
							}
						}
					}
				}
				JOINT LeftShoulder
				{
					OFFSET 4.570447 11.014725 -2.160858
					CHANNELS 6 Xposition Yposition Zposition Xrotation Yrotation Zrotation
					JOINT LeftArm
					{
						OFFSET 10.592371 -0.524597 -2.232121
						CHANNELS 3 Xrotation Yrotation Zrotation
						JOINT LeftForeArm
						{
							OFFSET 27.841520 -0.000015 0.000023
							CHANNELS 3 Xrotation Yrotation Zrotation
							JOINT LeftHand
							{
								OFFSET 28.328835 -0.000046 0.000017
								CHANNELS 6 Xposition Yposition Zposition Xrotation Yrotation Zrotation
								JOINT LeftHandThumb1
								{
									OFFSET 2.466141 -1.576187 2.681734
									CHANNELS 6 Xposition Yposition Zposition Xrotation Yrotation Zrotation
									JOINT LeftHandThumb2
									{
										OFFSET 3.217804 -1.872055 1.916487
										CHANNELS 6 Xposition Yposition Zposition Xrotation Yrotation Zrotation
										JOINT LeftHandThumb3
										{
											OFFSET 2.656021 -1.528809 1.514508
											CHANNELS 6 Xposition Yposition Zposition Xrotation Yrotation Zrotation
											JOINT LeftHandThumb4
											{
												OFFSET 2.020889 -1.154068 1.115132
												CHANNELS 6 Xposition Yposition Zposition Xrotation Yrotation Zrotation
												End Site
												{
													OFFSET 1.908852 -1.150833 1.300490
												}
											}
										}
									}
								}
								JOINT LeftHandIndex1
								{
									OFFSET 9.109306 -0.518036 2.259871
									CHANNELS 6 Xposition Yposition Zposition Xrotation Yrotation Zrotation
									JOINT LeftHandIndex2
									{
										OFFSET 3.699997 -0.000015 -0.000323
										CHANNELS 3 Xrotation Yrotation Zrotation
										JOINT LeftHandIndex3
										{
											OFFSET 2.850006 -0.000015 0.000350
											CHANNELS 3 Xrotation Yrotation Zrotation
											JOINT LeftHandIndex4
											{
												OFFSET 2.774857 -0.000015 -0.000027
												CHANNELS 3 Xrotation Yrotation Zrotation
												End Site
												{
													OFFSET 2.774864 0.000000 -0.000099
												}
											}
										}
									}
								}
								JOINT LeftHandMiddle1
								{
									OFFSET 9.533401 0.000031 0.000044
									CHANNELS 6 Xposition Yposition Zposition Xrotation Yrotation Zrotation
									JOINT LeftHandMiddle2
									{
										OFFSET 3.699997 0.000000 -0.000231
										CHANNELS 3 Xrotation Yrotation Zrotation
										JOINT LeftHandMiddle3
										{
											OFFSET 2.949997 -0.000015 -0.000059
											CHANNELS 3 Xrotation Yrotation Zrotation
											JOINT LeftHandMiddle4
											{
												OFFSET 2.952866 0.000000 0.000062
												CHANNELS 3 Xrotation Yrotation Zrotation
												End Site
												{
													OFFSET 2.952858 0.000000 0.000228
												}
											}
										}
									}
								}
								JOINT LeftHandRing1
								{
									OFFSET 9.104530 -0.043030 -1.865075
									CHANNELS 6 Xposition Yposition Zposition Xrotation Yrotation Zrotation
									JOINT LeftHandRing2
									{
										OFFSET 3.150009 0.000000 0.000042
										CHANNELS 3 Xrotation Yrotation Zrotation
										JOINT LeftHandRing3
										{
											OFFSET 2.949989 -0.000015 0.000040
											CHANNELS 3 Xrotation Yrotation Zrotation
											JOINT LeftHandRing4
											{
												OFFSET 2.644318 -0.000015 0.000056
												CHANNELS 6 Xposition Yposition Zposition Xrotation Yrotation Zrotation
												End Site
												{
													OFFSET 2.644318 0.000000 0.000120
												}
											}
										}
									}
								}
								JOINT LeftHandPinky1
								{
									OFFSET 8.077782 -0.486877 -3.806258
									CHANNELS 6 Xposition Yposition Zposition Xrotation Yrotation Zrotation
									JOINT LeftHandPinky2
									{
										OFFSET 3.599960 0.000031 0.014726
										CHANNELS 3 Xrotation Yrotation Zrotation
										JOINT LeftHandPinky3
										{
											OFFSET 2.099998 0.000031 0.007705
											CHANNELS 3 Xrotation Yrotation Zrotation
											JOINT LeftHandPinky4
											{
												OFFSET 2.125504 0.000000 0.007515
												CHANNELS 3 Xrotation Yrotation Zrotation
												End Site
												{
													OFFSET 2.125511 0.000015 0.006257
												}
											}
										}
									}
								}
							}
						}
					}
				}
			}
		}
	}
	JOINT RightUpLeg
	{
		OFFSET -8.207787 -6.751663 -1.599560
		CHANNELS 6 Xposition Yposition Zposition Xrotation Yrotation Zrotation
		JOINT RightLeg
		{
			OFFSET -0.000001 -44.370129 0.345939
			CHANNELS 3 Xrotation Yrotation Zrotation
			JOINT RightFoot
			{
				OFFSET 0.000001 -44.423679 -3.043537
				CHANNELS 3 Xrotation Yrotation Zrotation
				JOINT RightToeBase
				{
					OFFSET -0.000003 -8.728673 10.710563
					CHANNELS 6 Xposition Yposition Zposition Xrotation Yrotation Zrotation
					JOINT RightToe_End
					{
						OFFSET -0.000002 -0.000676 9.278122
						CHANNELS 6 Xposition Yposition Zposition Xrotation Yrotation Zrotation
						End Site
						{
							OFFSET -0.000003 -0.000676 9.278122
						}
					}
				}
			}
		}
	}
	JOINT LeftUpLeg
	{
		OFFSET 8.207791 -6.751694 -1.599555
		CHANNELS 6 Xposition Yposition Zposition Xrotation Yrotation Zrotation
		JOINT LeftLeg
		{
			OFFSET -0.000002 -44.370033 0.346957
			CHANNELS 3 Xrotation Yrotation Zrotation
			JOINT LeftFoot
			{
				OFFSET 0.000000 -44.423672 -3.044393
				CHANNELS 3 Xrotation Yrotation Zrotation
				JOINT LeftToeBase
				{
					OFFSET -0.000003 -8.728668 10.710562
					CHANNELS 6 Xposition Yposition Zposition Xrotation Yrotation Zrotation
					JOINT LeftToe_End
					{
						OFFSET -0.000003 -0.000676 9.278135
						CHANNELS 6 Xposition Yposition Zposition Xrotation Yrotation Zrotation
						End Site
						{
							OFFSET -0.000003 -0.000677 9.278135
						}
					}
				}
			}
		}
	}
}
MOTION
Frames: 4
Frame Time: 0.033333
3.620832 101.864693 2.154129 0.870598 -0.643708 -1.181378 -0.000005 10.181590 0.131523 0.106728 0.529843 -0.469898 -0.000000 9.893955 -1.470715 0.214499 1.027246 -0.706585 0.214497 1.027246 -0.706585 0.000000 16.740408 -2.049036 2.971343 0.034117 0.663864 0.000001 9.617868 1.685012 1.798077 0.158012 3.078419 0.000002 22.037384 7.501097 -0.000000 0.000000 -0.000000 -4.569976 11.014929 -2.160885 1.534282 7.351093 16.205479 4.808151 -5.758430 63.889337 -27.841526 0.000007 0.000003 17.679849 33.728792 -10.081626 -28.328829 0.000014 0.000021 15.012669 13.055743 -20.037540 -2.464804 -1.573962 2.681853 -10.057552 -6.035481 0.404925 -3.215206 -1.872780 1.924266 28.578644 -1.870090 -2.217494 -2.654844 -1.527946 1.512610 -0.323123 0.728909 0.173673 -0.000001 0.000000 0.000001 -9.108265 -0.517848 2.259838 -3.167998 -0.546250 53.778270 -5.637848 1.762834 76.723597 -0.000002 -0.010099 -0.000000 0.000001 0.000002 -0.000001 -9.532520 -0.000026 -0.000022 -5.624781 -0.139762 60.794892 -7.103297 2.012352 82.923018 0.000002 -0.036899 -0.000004 -0.000005 -0.000002 -0.000002 -9.103597 -0.043054 -1.865135 -4.033815 3.878391 58.407823 -3.763179 6.493031 90.849821 -0.000001 -0.012900 0.000001 0.000002 0.000004 -0.000001 -8.076688 -0.486702 -3.806280 -3.945251 6.983746 54.490368 -4.103821 10.286452 97.280991 -0.000001 -0.056898 -0.000003 0.000000 -0.000001 -0.000002 4.570449 11.014725 -2.160855 0.237112 -15.589463 -17.891993 4.281290 15.087275 -57.453892 17.913010 -27.226246 0.068300 28.328836 -0.000064 0.000013 21.740207 2.403869 -0.893875 2.466124 -1.576201 2.681734 -3.986591 10.036731 -7.745855 3.217794 -1.872070 1.916492 1.964545 5.837647 1.992750 2.656006 -1.528814 1.514503 -0.280427 -0.641571 -0.159354 2.020891 -1.154073 1.115135 -0.000004 0.000001 -0.000007 9.109298 -0.518047 2.259871 -1.141219 -6.334959 -38.045042 -3.684171 -3.538669 -65.315214 0.000001 -0.007604 0.000000 -0.000001 -0.000000 0.000001 9.533407 0.000006 0.000046 -7.519043 -7.791074 -58.808974 -5.762961 -5.388668 -85.658031 0.000005 0.002404 0.000002 -0.000002 0.000001 0.000002 9.104529 -0.043041 -1.865076 -10.465809 1.360585 -59.764818 -3.415694 -4.376165 -88.374131 -0.000001 0.000001 -0.000001 2.644324 -0.000002 0.000058 -0.000002 0.000000 0.000001 8.077769 -0.486890 -3.806260 -13.455210 5.963671 -69.489573 -1.206851 -6.385473 -79.132031 -0.000002 -0.007689 0.000006 -0.000000 0.000004 0.000003 -8.207788 -6.751655 -1.599561 -15.644864 -7.218321 -2.758787 55.908063 -2.448027 -0.269915 8.226550 1.330981 -10.997316 -0.000004 -8.728669 10.710564 -6.618845 -3.746903 2.938252 -0.000001 -0.000677 9.278118 -0.000002 -0.000001 -0.000000 8.207792 -6.751693 -1.599555 -14.755048 8.411344 0.688219 24.020633 -9.215343 0.945348 -9.918592 0.032576 3.900073 -0.000005 -8.728668 10.710563 -4.195324 3.947675 -4.974785 -0.000003 -0.000677 9.278141 0.000003 0.000000 -0.000000 
3.797362 102.701927 1.625225 1.162961 1.222651 -1.214634 -0.000005 10.181593 0.131523 0.148911 0.023962 -0.441954 0.000000 9.893948 -1.470713 0.297718 0.013688 -0.423024 0.297717 0.013688 -0.423024 0.000002 16.740381 -2.049034 3.244681 0.279775 0.424124 0.000002 9.617867 1.685012 1.419359 0.557487 3.300151 0.000002 22.037354 7.501100 0.000000 0.000000 -0.000000 -4.569970 11.014884 -2.160885 1.658046 6.156115 17.668313 4.303077 -7.257519 63.077084 -27.841515 0.000004 0.000002 16.324067 26.093867 -6.884873 -28.328835 0.000021 0.000028 14.487489 14.692348 -18.443983 -2.464830 -1.573983 2.681845 -11.423461 -6.497951 -1.781112 -3.215204 -1.872787 1.924285 27.976839 -3.875681 -0.650517 -2.654833 -1.527947 1.512609 -0.323126 0.728911 0.173674 -0.000004 0.000002 -0.000001 -9.108275 -0.517856 2.259829 -3.137151 -0.603093 53.356666 -5.571960 1.747412 76.084510 0.000003 -0.010102 0.000001 0.000002 -0.000003 -0.000001 -9.532529 -0.000009 -0.000029 -5.606011 -0.174614 60.574277 -7.045313 2.005339 82.282661 0.000002 -0.036902 -0.000004 0.000000 0.000003 0.000001 -9.103603 -0.043061 -1.865139 -4.040027 3.877947 57.979475 -3.691830 6.491750 90.039119 -0.000006 -0.012896 -0.000002 -0.000001 -0.000001 -0.000002 -8.076683 -0.486722 -3.806284 -4.018494 7.094764 54.034866 -4.053015 10.290913 96.552777 -0.000002 -0.056898 -0.000001 -0.000001 0.000001 0.000000 4.570447 11.014699 -2.160853 0.272706 -15.947757 -16.955823 3.020533 12.170227 -56.336814 18.078874 -30.899503 -0.249963 28.328846 -0.000049 0.000017 19.363808 0.912603 -0.637518 2.466128 -1.576209 2.681737 -3.986596 10.036731 -7.745860 3.217803 -1.872053 1.916491 1.964553 5.837643 1.992746 2.656002 -1.528821 1.514503 -0.280427 -0.641574 -0.159359 2.020887 -1.154081 1.115132 -0.000003 0.000002 -0.000002 9.109313 -0.518052 2.259872 -1.101130 -6.348336 -37.538808 -3.707265 -3.549258 -65.524682 0.000002 -0.007602 0.000000 -0.000002 -0.000000 -0.000000 9.533414 0.000006 0.000048 -7.470297 -7.810153 -58.306613 -5.785619 -5.390399 -85.868530 0.000005 0.002403 0.000005 -0.000002 0.000001 0.000003 9.104524 -0.043046 -1.865075 -10.417956 1.339394 -59.271712 -3.428602 -4.376389 -88.584289 0.000002 0.000001 -0.000001 2.644314 0.000026 0.000056 0.000001 0.000002 0.000001 8.077785 -0.486891 -3.806258 -13.405684 5.942633 -69.001535 -1.211141 -6.387066 -79.342025 -0.000001 -0.007688 0.000006 0.000002 0.000000 0.000001 -8.207788 -6.751667 -1.599561 -21.670633 -6.642602 -2.546617 51.634447 -3.393175 0.391981 1.671203 1.546463 -10.238915 -0.000003 -8.728668 10.710561 -6.939705 -3.245343 2.696132 -0.000002 -0.000676 9.278120 0.000002 0.000000 0.000001 8.207791 -6.751710 -1.599554 -9.337225 9.111840 0.389658 19.566974 -11.817244 0.968564 -9.961511 0.025466 4.230145 -0.000005 -8.728670 10.710562 -5.332062 3.967114 -4.916331 -0.000001 -0.000677 9.278137 0.000003 -0.000000 -0.000000 
3.891996 102.841209 1.044196 1.549043 3.045550 -0.787475 -0.000005 10.181574 0.131519 0.188193 -0.425026 -0.462308 0.000001 9.893955 -1.470710 0.379067 -0.852402 -0.375171 0.379069 -0.852402 -0.375172 0.000001 16.740440 -2.049036 3.200163 0.466259 0.345579 0.000002 9.617879 1.685010 0.915136 0.796561 3.560317 0.000001 22.037354 7.501099 0.000000 -0.000000 0.000000 -4.569973 11.014937 -2.160887 1.780024 5.252207 18.612146 4.232807 -8.801775 62.184364 -27.841509 0.000024 0.000003 15.239272 19.787814 -3.875580 -28.328840 0.000006 0.000020 13.107820 15.480644 -16.804236 -2.464818 -1.573976 2.681847 -12.930004 -7.203325 -4.386383 -3.215208 -1.872779 1.924269 27.947698 -5.067833 0.202647 -2.654841 -1.527955 1.512605 -0.323121 0.728909 0.173675 0.000000 -0.000003 -0.000002 -9.108279 -0.517853 2.259832 -2.992707 -0.690956 50.961985 -5.461139 1.722872 75.038412 -0.000000 -0.010099 0.000001 -0.000000 -0.000001 0.000002 -9.532541 -0.000023 -0.000027 -5.513642 -0.232034 59.496542 -6.936434 2.001349 81.088197 0.000002 -0.036904 -0.000001 0.000002 0.000001 0.000001 -9.103600 -0.043052 -1.865135 -3.950574 3.804254 56.948635 -3.567549 6.481199 88.476139 0.000000 -0.012899 -0.000000 -0.000002 -0.000003 -0.000002 -8.076669 -0.486712 -3.806281 -3.952260 7.057193 53.047392 -3.960018 10.283719 95.161529 0.000001 -0.056894 -0.000006 0.000003 0.000003 -0.000002 4.570446 11.014764 -2.160859 0.263757 -16.430988 -16.237815 2.410200 10.345375 -54.487783 18.474132 -37.952172 -0.037086 28.328835 -0.000047 0.000018 16.593656 0.876304 -1.028994 2.466134 -1.576202 2.681737 -3.986586 10.036727 -7.745861 3.217814 -1.872069 1.916489 1.964546 5.837649 1.992748 2.656011 -1.528810 1.514495 -0.280426 -0.641571 -0.159359 2.020895 -1.154066 1.115133 0.000004 0.000000 -0.000006 9.109313 -0.518047 2.259867 -1.054941 -6.337697 -36.941006 -3.729721 -3.559440 -65.727655 -0.000001 -0.007602 0.000001 0.000002 -0.000004 -0.000000 9.533407 0.000005 0.000046 -7.412805 -7.810166 -57.710201 -5.807616 -5.392028 -86.072507 0.000002 0.002403 0.000003 0.000000 -0.000001 -0.000001 9.104529 -0.043040 -1.865077 -10.366388 1.335491 -58.684774 -3.441120 -4.376539 -88.787951 0.000004 0.000001 0.000003 2.644324 0.000018 0.000056 -0.000001 0.000002 0.000007 8.077793 -0.486883 -3.806263 -13.356122 5.935110 -68.419098 -1.215294 -6.388595 -79.545524 -0.000002 -0.007687 0.000003 -0.000001 0.000000 0.000001 -8.207789 -6.751662 -1.599566 -26.478850 -5.945292 -2.964120 43.967960 -4.189034 0.546555 -1.999384 1.596775 -9.164448 -0.000006 -8.728670 10.710565 -7.611638 -2.590024 2.181847 -0.000001 -0.000676 9.278120 0.000000 0.000001 -0.000001 8.207792 -6.751698 -1.599557 -4.303467 9.941099 0.102285 15.506476 -14.530821 0.461765 -10.698934 0.082351 4.274728 -0.000004 -8.728670 10.710562 -5.812468 3.762817 -4.634942 -0.000001 -0.000677 9.278137 0.000003 0.000000 -0.000001 
3.934205 102.333366 0.709917 1.805677 4.337012 -0.075688 -0.000005 10.181589 0.131521 0.222445 -0.732521 -0.514068 0.000000 9.893966 -1.470711 0.449431 -1.427832 -0.447806 0.449429 -1.427831 -0.447807 0.000002 16.740423 -2.049035 3.320190 0.611508 0.201619 0.000001 9.617894 1.685008 0.224636 0.909396 3.808679 0.000002 22.037369 7.501099 0.000000 -0.000000 -0.000000 -4.569971 11.014912 -2.160887 1.680496 5.360321 20.143649 6.871849 -11.774584 60.837745 -27.841507 0.000028 0.000005 15.291277 18.832000 -2.306938 -28.328815 0.000007 0.000024 10.518950 14.319591 -14.402635 -2.464827 -1.573961 2.681850 -14.002379 -7.593109 -6.154287 -3.215208 -1.872776 1.924286 28.812712 -4.862261 -0.016429 -2.654828 -1.527956 1.512605 -0.323124 0.728913 0.173676 0.000002 0.000000 -0.000001 -9.108286 -0.517861 2.259836 -2.655394 -0.981167 46.063916 -5.256275 1.683748 73.030637 0.000000 -0.010103 0.000001 -0.000000 0.000002 -0.000000 -9.532538 -0.000018 -0.000024 -5.352717 -0.292771 57.358679 -6.717999 2.005672 78.741631 0.000002 -0.036904 -0.000002 -0.000000 -0.000001 0.000001 -9.103597 -0.043056 -1.865134 -3.033357 2.123378 54.643679 -3.363071 6.454901 85.860218 -0.000002 -0.012902 0.000001 -0.000001 0.000002 -0.000002 -8.076684 -0.486701 -3.806281 -3.613685 6.807663 50.822372 -3.807122 10.262926 92.862248 -0.000002 -0.056901 0.000003 0.000001 -0.000001 0.000000 4.570449 11.014751 -2.160855 0.425791 -16.152101 -15.380814 1.068492 7.949937 -52.735112 18.444625 -44.616322 0.259796 28.328856 -0.000063 0.000019 14.245900 1.206864 -1.045429 2.466137 -1.576203 2.681739 -3.986588 10.036734 -7.745856 3.217803 -1.872066 1.916482 1.964551 5.837647 1.992753 2.656022 -1.528816 1.514514 -0.280430 -0.641569 -0.159358 2.020895 -1.154090 1.115141 0.000002 0.000001 -0.000002 9.109302 -0.518064 2.259868 -1.007692 -6.304462 -36.308131 -3.754904 -3.570754 -65.955476 -0.000001 -0.007599 -0.000002 -0.000002 -0.000002 0.000003 9.533413 0.000017 0.000043 -7.352612 -7.791374 -57.076267 -5.832420 -5.393663 -86.301428 -0.000005 0.002396 -0.000001 -0.000001 -0.000001 -0.000000 9.104542 -0.043046 -1.865074 -10.317920 1.347986 -58.059415 -3.455098 -4.376540 -89.016571 0.000003 0.000001 0.000002 2.644322 0.000023 0.000060 -0.000003 0.000002 0.000001 8.077792 -0.486880 -3.806267 -13.312146 5.942280 -67.797038 -1.219937 -6.390263 -79.773939 0.000002 -0.007687 0.000005 0.000001 0.000003 0.000004 -8.207788 -6.751665 -1.599563 -29.488959 -5.075721 -3.595542 34.147657 -4.348346 0.060583 -4.501027 1.531937 -8.481123 -0.000005 -8.728666 10.710563 -10.161793 -2.443518 2.248890 -0.000001 -0.000676 9.278118 0.000000 0.000000 0.000000 8.207789 -6.751699 -1.599556 0.774282 10.907979 -0.305644 12.127511 -17.263153 -0.000436 -12.674302 0.069287 4.833877 -0.000003 -8.728668 10.710560 -5.874303 3.990449 -4.912536 -0.000003 -0.000677 9.278139 0.000003 -0.000000 0.000000 
